0
SECTION
2
HEADER
9
$ACADVER
1
AC1009
9
$INSBASE
10
0.
20
0.
30
0.
9
$EXTMIN
10
-415.
20
-130.
30
0.
9
$EXTMAX
10
20019.234647
20
8158.459714
30
0.
9
$LIMMIN
10
0.
20
0.
9
$LIMMAX
10
6000.
20
4000.
9
$ORTHOMODE
70
1
9
$REGENMODE
70
1
9
$FILLMODE
70
1
9
$QTEXTMODE
70
0
9
$MIRRTEXT
70
0
9
$DRAGMODE
70
2
9
$LTSCALE
40
250.
9
$OSMODE
70
0
9
$ATTMODE
70
1
9
$TEXTSIZE
40
3.5
9
$TRACEWID
40
1.
9
$TEXTSTYLE
7
STANDARD
9
$CLAYER
8
0
9
$CELTYPE
6
BYLAYER
9
$CECOLOR
62
256
9
$DIMSCALE
40
1.
9
$DIMASZ
40
40.
9
$DIMEXO
40
20.
9
$DIMDLI
40
7.
9
$DIMRND
40
0.
9
$DIMDLE
40
0.
9
$DIMEXE
40
1.8
9
$DIMTP
40
0.
9
$DIMTM
40
0.
9
$DIMTXT
40
40.
9
$DIMCEN
40
1.5
9
$DIMTSZ
40
0.
9
$DIMTOL
70
0
9
$DIMLIM
70
0
9
$DIMTIH
70
0
9
$DIMTOH
70
0
9
$DIMSE1
70
0
9
$DIMSE2
70
0
9
$DIMTAD
70
0
9
$DIMZIN
70
0
9
$DIMBLK
1

9
$DIMASO
70
1
9
$DIMSHO
70
0
9
$DIMPOST
1

9
$DIMAPOST
1

9
$DIMALT
70
0
9
$DIMALTD
70
2
9
$DIMALTF
40
25.4
9
$DIMLFAC
40
1.
9
$DIMTOFL
70
0
9
$DIMTVP
40
0.
9
$DIMTIX
70
0
9
$DIMSOXD
70
0
9
$DIMSAH
70
0
9
$DIMBLK1
1

9
$DIMBLK2
1

9
$DIMSTYLE
2
*UNNAMED
9
$DIMCLRD
70
0
9
$DIMCLRE
70
0
9
$DIMCLRT
70
0
9
$DIMTFAC
40
1.
9
$DIMGAP
40
0.09
9
$LUNITS
70
2
9
$LUPREC
70
0
9
$SKETCHINC
40
1.
9
$FILLETRAD
40
0.
9
$AUNITS
70
0
9
$AUPREC
70
0
9
$MENU
1
ACAD
9
$ELEVATION
40
0.
9
$PELEVATION
40
0.
9
$THICKNESS
40
0.
9
$LIMCHECK
70
0
9
$BLIPMODE
70
1
9
$CHAMFERA
40
0.
9
$CHAMFERB
40
0.
9
$SKPOLY
70
0
9
$TDCREATE
40
0.245006293187384200E+07
9
$TDUPDATE
40
0.245006293187384200E+07
9
$TDINDWG
40
0.
9
$TDUSRTIMER
40
0.
9
$USRTIMER
70
1
9
$ANGBASE
50
0.
9
$ANGDIR
70
0
9
$PDMODE
70
0
9
$PDSIZE
40
0.
9
$PLINEWID
40
0.
9
$COORDS
70
1
9
$SPLFRAME
70
0
9
$SPLINETYPE
70
6
9
$SPLINESEGS
70
8
9
$ATTDIA
70
0
9
$ATTREQ
70
1
9
$HANDLING
70
0
9
$HANDSEED
5
0
9
$SURFTAB1
70
6
9
$SURFTAB2
70
6
9
$SURFTYPE
70
6
9
$SURFU
70
6
9
$SURFV
70
6
9
$UCSNAME
2

9
$UCSORG
10
19604.234647
20
6122.959714
30
0.
9
$UCSXDIR
10
1.
20
0.
30
0.
9
$UCSYDIR
10
0.
20
1.
30
0.
9
$PUCSNAME
2

9
$PUCSORG
10
0.
20
0.
30
0.
9
$PUCSXDIR
10
1.
20
0.
30
0.
9
$PUCSYDIR
10
0.
20
1.
30
0.
9
$USERI1
70
0
9
$USERI2
70
0
9
$USERI3
70
0
9
$USERI4
70
0
9
$USERI5
70
0
9
$USERR1
40
0.
9
$USERR2
40
0.
9
$USERR3
40
0.
9
$USERR4
40
0.
9
$USERR5
40
0.
9
$WORLDVIEW
70
1
9
$SHADEDGE
70
3
9
$SHADEDIF
70
70
9
$TILEMODE
70
1
9
$MAXACTVP
70
16
9
$PINSBASE
10
7611.854037
20
50.
30
19919.406477
9
$PLIMCHECK
70
0
9
$PEXTMIN
10
0.100000000000000000E+21
20
0.100000000000000000E+21
30
0.100000000000000000E+21
9
$PEXTMAX
10
-.100000000000000000E+21
20
-.100000000000000000E+21
30
-.100000000000000000E+21
9
$PLIMMIN
10
0.
20
0.
9
$PLIMMAX
10
12.
20
9.
9
$UNITMODE
70
0
9
$VISRETAIN
70
0
9
$PLINEGEN
70
0
9
$PSLTSCALE
70
0
9
$TREEDEPTH
70
3020
9
$DWGCODEPAGE
3
dos850
0
ENDSEC
0
SECTION
2
TABLES
0
TABLE
2
VPORT
70
  100
0
VPORT
2
*ACTIVE
70
0
10
0.
20
0.
11
1.
21
1.
12
20691.45196
22
7081.408398
13
0.
23
0.
14
1.
24
1.
15
10.
25
10.
16
0.
26
0.
36
1.
17
0.
27
0.
37
0.
40
2176.897368
41
1.380145
42
50.
43
0.
44
0.
50
0.
51
0.
71
0
72
100
73
1
74
0
75
0
76
0
77
0
78
0
0
ENDTAB
0
TABLE
2
LTYPE
70
  200
0
LTYPE
2
CONTINUOUS
70
64
3
Solid line
72
65
73
0
40
0.
0
LTYPE
2
DASHDOT
70
64
3
__ . __ . __ . __ . __ . __ . __ . __ . __ . __
72
65
73
4
40
1.
49
0.5
49
-.25
49
0.
49
-.25
0
LTYPE
2
GESTRICHELT
70
     0
3
__ __ __ __ __ __ __ __ __ __ _
72
    65
73
     2
40
0.75
49
0.5
49
-0.25
0
LTYPE
2
VERDECKT
70
     0
3
_ _ _ _ _ _ _ _ _ _ _ _ _ _ _ _
72
    65
73
     2
40
0.25
49
0.125
49
-0.125
0
LTYPE
2
MITTELLINIE
70
     0
3
____ _ ____ _ ____ _ ____ _ ___
72
    65
73
     4
40
2.0
49
1.25
49
-0.25
49
0.25
49
-0.25
0
LTYPE
2
PHANTOM
70
     0
3
_____ _ _ _____ _ _ _____ _ _ _
72
    65
73
     6
40
2.5
49
1.25
49
-0.25
49
0.25
49
-0.25
49
0.25
49
-0.25
0
LTYPE
2
PUNKTIERT
70
     0
3
...............................
72
    65
73
     2
40
0.25
49
0.0
49
-0.25
0
LTYPE
2
STRICHPUNKTIERT
70
     0
3
__ . __ . __ . __ . __ . __ . _
72
    65
73
     4
40
1.0
49
0.5
49
-0.25
49
0.0
49
-0.25
0
LTYPE
2
RAND
70
     0
3
__ __ . __ __ . __ __ . __ __ .
72
    65
73
     6
40
1.75
49
0.5
49
-0.25
49
0.5
49
-0.25
49
0.0
49
-0.25
0
LTYPE
2
TRENNLINIE
70
     0
3
__ . . __ . . __ . . __ . . __
72
    65
73
     6
40
1.25
49
0.5
49
-0.25
49
0.0
49
-0.25
49
0.0
49
-0.25
0
LTYPE
2
ENG_PUNKTIERT
70
     0
3
Schlieﬂen
72
    65
73
     2
40
0.1
49
0.05
49
-0.05
0
LTYPE
2
CLOSE
70
     0
3

72
    65
73
     0
40
0.0
0
ENDTAB
0
TABLE
2
LAYER
70
 8000
0
LAYER
2
0
70
64
62
7
6
CONTINUOUS
0
LAYER
2
RI_ML
70
64
62
6
6
MITTELLINIE
0
LAYER
2
RI_RA
70
64
62
3
6
CONTINUOUS
0
LAYER
2
RI_RI
70
64
62
3
6
CONTINUOUS
0
LAYER
2
RI_TXT
70
64
62
4
6
CONTINUOUS
0
LAYER
2
RI_EIN
70
64
62
6
6
CONTINUOUS
0
LAYER
2
RI_25RAST
70
64
62
6
6
CONTINUOUS
0
LAYER
2
DEFPOINTS
70
64
62
7
6
CONTINUOUS
0
LAYER
2
RI_TXT
70
65
62
-1
6
CONTINUOUS
0
ENDTAB
0
TABLE
2
STYLE
70
  100
0
STYLE
2
STANDARD
70
64
40
0.
41
1.
50
0.
71
0
42
3.5
3
txt
4

0
ENDTAB
0
TABLE
2
APPID
70
  100
0
APPID
2
ACAD
70
64
0
ENDTAB
0
TABLE
2
DIMSTYLE
70
 1000
0
ENDTAB
0
TABLE
2
VIEW
70
  100
0
ENDTAB
0
TABLE
2
UCS
70
  100
0
ENDTAB
0
ENDSEC
0
SECTION
2
BLOCKS
0
BLOCK
8
0
2
DXFKONV_DUMMY
70
64
10
0.0
20
0.0
0
ENDBLK
8
0
0
ENDSEC
0
SECTION
2
ENTITIES
0
LINE
8
RI_RA
10
399.5
20
1999.
30
0.
11
399.5
21
0.
31
0.
0
LINE
8
RI_RI
10
356.
20
1955.5
30
0.
11
356.
21
43.5
31
0.
0
LINE
8
RI_ML
6
MITTELLINIE
10
0.
20
-20.
30
0.
11
0.
21
2020.
31
0.
0
LINE
8
RI_RI
10
-356.
20
1955.5
30
0.
11
-356.
21
43.5
31
0.
0
LINE
8
RI_RA
10
-399.5
20
1999.
30
0.
11
-399.5
21
0.
31
0.
0
LINE
8
RI_RA
10
-399.5
20
0.
30
0.
11
0.
21
0.
31
0.
0
LINE
8
RI_RI
10
-356.
20
43.5
30
0.
11
0.
21
43.5
31
0.
0
LINE
8
RI_25RAST
10
-212.5
20
26.75
30
0.
11
-212.5
21
37.25
31
0.
0
LINE
8
RI_25RAST
10
-237.5
20
26.75
30
0.
11
-237.5
21
37.25
31
0.
0
LINE
8
RI_25RAST
10
-262.5
20
26.75
30
0.
11
-262.5
21
37.25
31
0.
0
LINE
8
RI_25RAST
10
-287.5
20
26.75
30
0.
11
-287.5
21
37.25
31
0.
0
LINE
8
RI_25RAST
10
-312.5
20
26.75
30
0.
11
-312.5
21
37.25
31
0.
0
LINE
8
RI_25RAST
10
-337.5
20
26.75
30
0.
11
-337.5
21
37.25
31
0.
0
LINE
8
RI_RI
10
-357.5
20
0.
30
0.
11
-357.5
21
42.
31
0.
0
LINE
8
RI_RI
10
-399.5
20
42.
30
0.
11
-399.5
21
0.
31
0.
0
CIRCLE
8
RI_EIN
10
-400.
20
0.
30
0.
40
15.
0
LINE
8
RI_RI
10
-399.5
20
0.
30
0.
11
-357.5
21
0.
31
0.
0
LINE
8
RI_25RAST
10
-372.75
20
187.
30
0.
11
-362.25
21
187.
31
0.
0
LINE
8
RI_25RAST
10
-372.75
20
162.
30
0.
11
-362.25
21
162.
31
0.
0
LINE
8
RI_25RAST
10
-372.75
20
137.
30
0.
11
-362.25
21
137.
31
0.
0
LINE
8
RI_25RAST
10
-372.75
20
112.
30
0.
11
-362.25
21
112.
31
0.
0
LINE
8
RI_25RAST
10
-372.75
20
87.
30
0.
11
-362.25
21
87.
31
0.
0
LINE
8
RI_RI
10
-357.5
20
42.
30
0.
11
-399.5
21
42.
31
0.
0
LINE
8
RI_25RAST
10
-372.75
20
62.
30
0.
11
-362.25
21
62.
31
0.
0
LINE
8
RI_25RAST
10
-372.75
20
337.
30
0.
11
-362.25
21
337.
31
0.
0
LINE
8
RI_25RAST
10
-372.75
20
312.
30
0.
11
-362.25
21
312.
31
0.
0
LINE
8
RI_25RAST
10
-372.75
20
287.
30
0.
11
-362.25
21
287.
31
0.
0
LINE
8
RI_25RAST
10
-372.75
20
262.
30
0.
11
-362.25
21
262.
31
0.
0
LINE
8
RI_25RAST
10
-372.75
20
237.
30
0.
11
-362.25
21
237.
31
0.
0
LINE
8
RI_25RAST
10
-372.75
20
212.
30
0.
11
-362.25
21
212.
31
0.
0
LINE
8
RI_25RAST
10
-372.75
20
487.
30
0.
11
-362.25
21
487.
31
0.
0
LINE
8
RI_25RAST
10
-372.75
20
462.
30
0.
11
-362.25
21
462.
31
0.
0
LINE
8
RI_25RAST
10
-372.75
20
437.
30
0.
11
-362.25
21
437.
31
0.
0
LINE
8
RI_25RAST
10
-372.75
20
412.
30
0.
11
-362.25
21
412.
31
0.
0
LINE
8
RI_25RAST
10
-372.75
20
387.
30
0.
11
-362.25
21
387.
31
0.
0
LINE
8
RI_25RAST
10
-372.75
20
362.
30
0.
11
-362.25
21
362.
31
0.
0
LINE
8
RI_RI
10
356.
20
43.5
30
0.
11
0.
21
43.5
31
0.
0
LINE
8
RI_RA
10
399.5
20
0.
30
0.
11
0.
21
0.
31
0.
0
LINE
8
RI_25RAST
10
162.5
20
26.75
30
0.
11
162.5
21
37.25
31
0.
0
LINE
8
RI_25RAST
10
112.5
20
26.75
30
0.
11
112.5
21
37.25
31
0.
0
LINE
8
RI_25RAST
10
137.5
20
26.75
30
0.
11
137.5
21
37.25
31
0.
0
LINE
8
RI_25RAST
10
62.5
20
26.75
30
0.
11
62.5
21
37.25
31
0.
0
LINE
8
RI_25RAST
10
87.5
20
26.75
30
0.
11
87.5
21
37.25
31
0.
0
LINE
8
RI_25RAST
10
12.5
20
26.75
30
0.
11
12.5
21
37.25
31
0.
0
LINE
8
RI_25RAST
10
37.5
20
26.75
30
0.
11
37.5
21
37.25
31
0.
0
LINE
8
RI_25RAST
10
-12.5
20
26.75
30
0.
11
-12.5
21
37.25
31
0.
0
LINE
8
RI_25RAST
10
-37.5
20
26.75
30
0.
11
-37.5
21
37.25
31
0.
0
LINE
8
RI_25RAST
10
-62.5
20
26.75
30
0.
11
-62.5
21
37.25
31
0.
0
LINE
8
RI_25RAST
10
-87.5
20
26.75
30
0.
11
-87.5
21
37.25
31
0.
0
LINE
8
RI_25RAST
10
-112.5
20
26.75
30
0.
11
-112.5
21
37.25
31
0.
0
LINE
8
RI_25RAST
10
-137.5
20
26.75
30
0.
11
-137.5
21
37.25
31
0.
0
LINE
8
RI_25RAST
10
-187.5
20
26.75
30
0.
11
-187.5
21
37.25
31
0.
0
LINE
8
RI_25RAST
10
-162.5
20
26.75
30
0.
11
-162.5
21
37.25
31
0.
0
CIRCLE
8
RI_EIN
10
0.
20
0.
30
0.
40
25.
0
TEXT
8
RI_TXT
10
-143.333333
20
-130.
30
0.
40
40.
1
4906200F
72
1
11
0.
21
-130.
31
0.
0
LINE
8
RI_RI
10
399.5
20
42.
30
0.
11
399.5
21
0.
31
0.
0
LINE
8
RI_25RAST
10
337.5
20
26.75
30
0.
11
337.5
21
37.25
31
0.
0
LINE
8
RI_25RAST
10
287.5
20
26.75
30
0.
11
287.5
21
37.25
31
0.
0
LINE
8
RI_25RAST
10
312.5
20
26.75
30
0.
11
312.5
21
37.25
31
0.
0
LINE
8
RI_RI
10
357.5
20
0.
30
0.
11
357.5
21
42.
31
0.
0
LINE
8
RI_25RAST
10
237.5
20
26.75
30
0.
11
237.5
21
37.25
31
0.
0
LINE
8
RI_25RAST
10
262.5
20
26.75
30
0.
11
262.5
21
37.25
31
0.
0
LINE
8
RI_25RAST
10
187.5
20
26.75
30
0.
11
187.5
21
37.25
31
0.
0
LINE
8
RI_25RAST
10
212.5
20
26.75
30
0.
11
212.5
21
37.25
31
0.
0
LINE
8
RI_RI
10
399.5
20
0.
30
0.
11
357.5
21
0.
31
0.
0
CIRCLE
8
RI_EIN
10
400.
20
0.
30
0.
40
15.
0
LINE
8
RI_RI
10
357.5
20
42.
30
0.
11
399.5
21
42.
31
0.
0
LINE
8
RI_25RAST
10
372.75
20
187.
30
0.
11
362.25
21
187.
31
0.
0
LINE
8
RI_25RAST
10
372.75
20
87.
30
0.
11
362.25
21
87.
31
0.
0
LINE
8
RI_25RAST
10
372.75
20
112.
30
0.
11
362.25
21
112.
31
0.
0
LINE
8
RI_25RAST
10
372.75
20
137.
30
0.
11
362.25
21
137.
31
0.
0
LINE
8
RI_25RAST
10
372.75
20
162.
30
0.
11
362.25
21
162.
31
0.
0
LINE
8
RI_25RAST
10
372.75
20
62.
30
0.
11
362.25
21
62.
31
0.
0
LINE
8
RI_25RAST
10
372.75
20
337.
30
0.
11
362.25
21
337.
31
0.
0
LINE
8
RI_25RAST
10
372.75
20
262.
30
0.
11
362.25
21
262.
31
0.
0
LINE
8
RI_25RAST
10
372.75
20
287.
30
0.
11
362.25
21
287.
31
0.
0
LINE
8
RI_25RAST
10
372.75
20
312.
30
0.
11
362.25
21
312.
31
0.
0
LINE
8
RI_25RAST
10
372.75
20
237.
30
0.
11
362.25
21
237.
31
0.
0
LINE
8
RI_25RAST
10
372.75
20
212.
30
0.
11
362.25
21
212.
31
0.
0
LINE
8
RI_25RAST
10
372.75
20
487.
30
0.
11
362.25
21
487.
31
0.
0
LINE
8
RI_25RAST
10
372.75
20
412.
30
0.
11
362.25
21
412.
31
0.
0
LINE
8
RI_25RAST
10
372.75
20
437.
30
0.
11
362.25
21
437.
31
0.
0
LINE
8
RI_25RAST
10
372.75
20
462.
30
0.
11
362.25
21
462.
31
0.
0
LINE
8
RI_25RAST
10
372.75
20
362.
30
0.
11
362.25
21
362.
31
0.
0
LINE
8
RI_25RAST
10
372.75
20
387.
30
0.
11
362.25
21
387.
31
0.
0
LINE
8
RI_RI
10
0.
20
1955.5
30
0.
11
-356.
21
1955.5
31
0.
0
LINE
8
RI_RA
10
0.
20
1999.
30
0.
11
-399.5
21
1999.
31
0.
0
LINE
8
RI_25RAST
10
-372.75
20
662.
30
0.
11
-362.25
21
662.
31
0.
0
LINE
8
RI_25RAST
10
-372.75
20
637.
30
0.
11
-362.25
21
637.
31
0.
0
LINE
8
RI_25RAST
10
-372.75
20
612.
30
0.
11
-362.25
21
612.
31
0.
0
LINE
8
RI_25RAST
10
-372.75
20
587.
30
0.
11
-362.25
21
587.
31
0.
0
LINE
8
RI_25RAST
10
-372.75
20
562.
30
0.
11
-362.25
21
562.
31
0.
0
LINE
8
RI_25RAST
10
-372.75
20
537.
30
0.
11
-362.25
21
537.
31
0.
0
LINE
8
RI_25RAST
10
-372.75
20
512.
30
0.
11
-362.25
21
512.
31
0.
0
LINE
8
RI_25RAST
10
-372.75
20
812.
30
0.
11
-362.25
21
812.
31
0.
0
LINE
8
RI_25RAST
10
-372.75
20
787.
30
0.
11
-362.25
21
787.
31
0.
0
LINE
8
RI_25RAST
10
-372.75
20
762.
30
0.
11
-362.25
21
762.
31
0.
0
LINE
8
RI_25RAST
10
-372.75
20
737.
30
0.
11
-362.25
21
737.
31
0.
0
LINE
8
RI_25RAST
10
-372.75
20
712.
30
0.
11
-362.25
21
712.
31
0.
0
LINE
8
RI_25RAST
10
-372.75
20
687.
30
0.
11
-362.25
21
687.
31
0.
0
LINE
8
RI_25RAST
10
-372.75
20
962.
30
0.
11
-362.25
21
962.
31
0.
0
LINE
8
RI_25RAST
10
-372.75
20
937.
30
0.
11
-362.25
21
937.
31
0.
0
LINE
8
RI_25RAST
10
-372.75
20
912.
30
0.
11
-362.25
21
912.
31
0.
0
LINE
8
RI_25RAST
10
-372.75
20
887.
30
0.
11
-362.25
21
887.
31
0.
0
LINE
8
RI_25RAST
10
-372.75
20
862.
30
0.
11
-362.25
21
862.
31
0.
0
LINE
8
RI_25RAST
10
-372.75
20
837.
30
0.
11
-362.25
21
837.
31
0.
0
LINE
8
RI_25RAST
10
-372.75
20
1137.
30
0.
11
-362.25
21
1137.
31
0.
0
LINE
8
RI_25RAST
10
-372.75
20
1112.
30
0.
11
-362.25
21
1112.
31
0.
0
LINE
8
RI_25RAST
10
-372.75
20
1087.
30
0.
11
-362.25
21
1087.
31
0.
0
LINE
8
RI_25RAST
10
-372.75
20
1062.
30
0.
11
-362.25
21
1062.
31
0.
0
LINE
8
RI_25RAST
10
-372.75
20
1037.
30
0.
11
-362.25
21
1037.
31
0.
0
LINE
8
RI_25RAST
10
-372.75
20
1012.
30
0.
11
-362.25
21
1012.
31
0.
0
LINE
8
RI_25RAST
10
-372.75
20
987.
30
0.
11
-362.25
21
987.
31
0.
0
LINE
8
RI_25RAST
10
-372.75
20
1287.
30
0.
11
-362.25
21
1287.
31
0.
0
LINE
8
RI_25RAST
10
-372.75
20
1262.
30
0.
11
-362.25
21
1262.
31
0.
0
LINE
8
RI_25RAST
10
-372.75
20
1237.
30
0.
11
-362.25
21
1237.
31
0.
0
LINE
8
RI_25RAST
10
-372.75
20
1212.
30
0.
11
-362.25
21
1212.
31
0.
0
LINE
8
RI_25RAST
10
-372.75
20
1187.
30
0.
11
-362.25
21
1187.
31
0.
0
LINE
8
RI_25RAST
10
-372.75
20
1162.
30
0.
11
-362.25
21
1162.
31
0.
0
LINE
8
RI_25RAST
10
-372.75
20
1437.
30
0.
11
-362.25
21
1437.
31
0.
0
LINE
8
RI_25RAST
10
-372.75
20
1412.
30
0.
11
-362.25
21
1412.
31
0.
0
LINE
8
RI_25RAST
10
-372.75
20
1387.
30
0.
11
-362.25
21
1387.
31
0.
0
LINE
8
RI_25RAST
10
-372.75
20
1362.
30
0.
11
-362.25
21
1362.
31
0.
0
LINE
8
RI_25RAST
10
-372.75
20
1337.
30
0.
11
-362.25
21
1337.
31
0.
0
LINE
8
RI_25RAST
10
-372.75
20
1312.
30
0.
11
-362.25
21
1312.
31
0.
0
LINE
8
RI_25RAST
10
-372.75
20
1612.
30
0.
11
-362.25
21
1612.
31
0.
0
LINE
8
RI_25RAST
10
-372.75
20
1587.
30
0.
11
-362.25
21
1587.
31
0.
0
LINE
8
RI_25RAST
10
-372.75
20
1562.
30
0.
11
-362.25
21
1562.
31
0.
0
LINE
8
RI_25RAST
10
-372.75
20
1537.
30
0.
11
-362.25
21
1537.
31
0.
0
LINE
8
RI_25RAST
10
-372.75
20
1512.
30
0.
11
-362.25
21
1512.
31
0.
0
LINE
8
RI_25RAST
10
-372.75
20
1487.
30
0.
11
-362.25
21
1487.
31
0.
0
LINE
8
RI_25RAST
10
-372.75
20
1462.
30
0.
11
-362.25
21
1462.
31
0.
0
LINE
8
RI_25RAST
10
-372.75
20
1762.
30
0.
11
-362.25
21
1762.
31
0.
0
LINE
8
RI_25RAST
10
-372.75
20
1737.
30
0.
11
-362.25
21
1737.
31
0.
0
LINE
8
RI_25RAST
10
-372.75
20
1712.
30
0.
11
-362.25
21
1712.
31
0.
0
LINE
8
RI_25RAST
10
-372.75
20
1687.
30
0.
11
-362.25
21
1687.
31
0.
0
LINE
8
RI_25RAST
10
-372.75
20
1662.
30
0.
11
-362.25
21
1662.
31
0.
0
LINE
8
RI_25RAST
10
-372.75
20
1637.
30
0.
11
-362.25
21
1637.
31
0.
0
LINE
8
RI_25RAST
10
-372.75
20
1937.
30
0.
11
-362.25
21
1937.
31
0.
0
LINE
8
RI_25RAST
10
-372.75
20
1912.
30
0.
11
-362.25
21
1912.
31
0.
0
LINE
8
RI_25RAST
10
-372.75
20
1887.
30
0.
11
-362.25
21
1887.
31
0.
0
LINE
8
RI_25RAST
10
-372.75
20
1862.
30
0.
11
-362.25
21
1862.
31
0.
0
LINE
8
RI_25RAST
10
-372.75
20
1837.
30
0.
11
-362.25
21
1837.
31
0.
0
LINE
8
RI_25RAST
10
-372.75
20
1812.
30
0.
11
-362.25
21
1812.
31
0.
0
LINE
8
RI_25RAST
10
-372.75
20
1787.
30
0.
11
-362.25
21
1787.
31
0.
0
LINE
8
RI_25RAST
10
-212.5
20
1972.25
30
0.
11
-212.5
21
1961.75
31
0.
0
LINE
8
RI_25RAST
10
-237.5
20
1972.25
30
0.
11
-237.5
21
1961.75
31
0.
0
LINE
8
RI_25RAST
10
-262.5
20
1972.25
30
0.
11
-262.5
21
1961.75
31
0.
0
LINE
8
RI_25RAST
10
-287.5
20
1972.25
30
0.
11
-287.5
21
1961.75
31
0.
0
LINE
8
RI_25RAST
10
-312.5
20
1972.25
30
0.
11
-312.5
21
1961.75
31
0.
0
LINE
8
0
10
-364.5
20
2007.
30
0.
11
-364.5
21
2033.5
31
0.
0
LINE
8
0
10
-357.5
20
2007.
30
0.
11
-357.5
21
1999.
31
0.
0
LINE
8
0
10
-367.5
20
2005.
30
0.
11
-367.5
21
2035.5
31
0.
0
LINE
8
RI_25RAST
10
-337.5
20
1972.25
30
0.
11
-337.5
21
1961.75
31
0.
0
LINE
8
0
10
-370.5
20
2007.
30
0.
11
-370.5
21
2033.5
31
0.
0
LINE
8
0
10
-377.5
20
1999.
30
0.
11
-377.5
21
2007.
31
0.
0
POINT
8
DEFPOINTS
6
BYBLOCK
62
0
10
-399.5
20
1999.
30
0.
0
LINE
8
RI_RI
10
-357.5
20
1999.
30
0.
11
-399.5
21
1999.
31
0.
0
LINE
8
0
10
-364.5
20
2033.5
30
0.
11
-370.5
21
2033.5
31
0.
0
LINE
8
0
10
-377.5
20
2007.
30
0.
11
-357.5
21
2007.
31
0.
0
LINE
8
0
10
-357.5
20
1999.
30
0.
11
-377.5
21
1999.
31
0.
0
LINE
8
RI_RI
10
-399.5
20
1957.
30
0.
11
-357.5
21
1957.
31
0.
0
LINE
8
RI_RI
10
-357.5
20
1957.
30
0.
11
-357.5
21
1999.
31
0.
0
LINE
8
RI_RI
10
-399.5
20
1999.
30
0.
11
-399.5
21
1957.
31
0.
0
LINE
8
RI_25RAST
10
372.75
20
637.
30
0.
11
362.25
21
637.
31
0.
0
LINE
8
RI_25RAST
10
372.75
20
662.
30
0.
11
362.25
21
662.
31
0.
0
LINE
8
RI_25RAST
10
372.75
20
562.
30
0.
11
362.25
21
562.
31
0.
0
LINE
8
RI_25RAST
10
372.75
20
587.
30
0.
11
362.25
21
587.
31
0.
0
LINE
8
RI_25RAST
10
372.75
20
612.
30
0.
11
362.25
21
612.
31
0.
0
LINE
8
RI_25RAST
10
372.75
20
512.
30
0.
11
362.25
21
512.
31
0.
0
LINE
8
RI_25RAST
10
372.75
20
537.
30
0.
11
362.25
21
537.
31
0.
0
LINE
8
RI_25RAST
10
372.75
20
812.
30
0.
11
362.25
21
812.
31
0.
0
LINE
8
RI_25RAST
10
372.75
20
712.
30
0.
11
362.25
21
712.
31
0.
0
LINE
8
RI_25RAST
10
372.75
20
737.
30
0.
11
362.25
21
737.
31
0.
0
LINE
8
RI_25RAST
10
372.75
20
762.
30
0.
11
362.25
21
762.
31
0.
0
LINE
8
RI_25RAST
10
372.75
20
787.
30
0.
11
362.25
21
787.
31
0.
0
LINE
8
RI_25RAST
10
372.75
20
687.
30
0.
11
362.25
21
687.
31
0.
0
LINE
8
RI_25RAST
10
372.75
20
962.
30
0.
11
362.25
21
962.
31
0.
0
LINE
8
RI_25RAST
10
372.75
20
887.
30
0.
11
362.25
21
887.
31
0.
0
LINE
8
RI_25RAST
10
372.75
20
912.
30
0.
11
362.25
21
912.
31
0.
0
LINE
8
RI_25RAST
10
372.75
20
937.
30
0.
11
362.25
21
937.
31
0.
0
LINE
8
RI_25RAST
10
372.75
20
862.
30
0.
11
362.25
21
862.
31
0.
0
LINE
8
RI_25RAST
10
372.75
20
837.
30
0.
11
362.25
21
837.
31
0.
0
LINE
8
RI_25RAST
10
372.75
20
1112.
30
0.
11
362.25
21
1112.
31
0.
0
LINE
8
RI_25RAST
10
372.75
20
1137.
30
0.
11
362.25
21
1137.
31
0.
0
LINE
8
RI_25RAST
10
372.75
20
1037.
30
0.
11
362.25
21
1037.
31
0.
0
LINE
8
RI_25RAST
10
372.75
20
1062.
30
0.
11
362.25
21
1062.
31
0.
0
LINE
8
RI_25RAST
10
372.75
20
1087.
30
0.
11
362.25
21
1087.
31
0.
0
LINE
8
RI_25RAST
10
372.75
20
1012.
30
0.
11
362.25
21
1012.
31
0.
0
LINE
8
RI_25RAST
10
372.75
20
987.
30
0.
11
362.25
21
987.
31
0.
0
LINE
8
RI_25RAST
10
372.75
20
1262.
30
0.
11
362.25
21
1262.
31
0.
0
LINE
8
RI_25RAST
10
372.75
20
1287.
30
0.
11
362.25
21
1287.
31
0.
0
LINE
8
RI_25RAST
10
372.75
20
1187.
30
0.
11
362.25
21
1187.
31
0.
0
LINE
8
RI_25RAST
10
372.75
20
1212.
30
0.
11
362.25
21
1212.
31
0.
0
LINE
8
RI_25RAST
10
372.75
20
1237.
30
0.
11
362.25
21
1237.
31
0.
0
LINE
8
RI_25RAST
10
372.75
20
1162.
30
0.
11
362.25
21
1162.
31
0.
0
LINE
8
RI_25RAST
10
372.75
20
1437.
30
0.
11
362.25
21
1437.
31
0.
0
LINE
8
RI_25RAST
10
372.75
20
1337.
30
0.
11
362.25
21
1337.
31
0.
0
LINE
8
RI_25RAST
10
372.75
20
1362.
30
0.
11
362.25
21
1362.
31
0.
0
LINE
8
RI_25RAST
10
372.75
20
1387.
30
0.
11
362.25
21
1387.
31
0.
0
LINE
8
RI_25RAST
10
372.75
20
1412.
30
0.
11
362.25
21
1412.
31
0.
0
LINE
8
RI_25RAST
10
372.75
20
1312.
30
0.
11
362.25
21
1312.
31
0.
0
LINE
8
RI_25RAST
10
372.75
20
1587.
30
0.
11
362.25
21
1587.
31
0.
0
LINE
8
RI_25RAST
10
372.75
20
1612.
30
0.
11
362.25
21
1612.
31
0.
0
LINE
8
RI_25RAST
10
372.75
20
1512.
30
0.
11
362.25
21
1512.
31
0.
0
LINE
8
RI_25RAST
10
372.75
20
1537.
30
0.
11
362.25
21
1537.
31
0.
0
LINE
8
RI_25RAST
10
372.75
20
1562.
30
0.
11
362.25
21
1562.
31
0.
0
LINE
8
RI_25RAST
10
372.75
20
1462.
30
0.
11
362.25
21
1462.
31
0.
0
LINE
8
RI_25RAST
10
372.75
20
1487.
30
0.
11
362.25
21
1487.
31
0.
0
LINE
8
RI_25RAST
10
372.75
20
1737.
30
0.
11
362.25
21
1737.
31
0.
0
LINE
8
RI_25RAST
10
372.75
20
1762.
30
0.
11
362.25
21
1762.
31
0.
0
LINE
8
RI_25RAST
10
372.75
20
1662.
30
0.
11
362.25
21
1662.
31
0.
0
LINE
8
RI_25RAST
10
372.75
20
1687.
30
0.
11
362.25
21
1687.
31
0.
0
LINE
8
RI_25RAST
10
372.75
20
1712.
30
0.
11
362.25
21
1712.
31
0.
0
LINE
8
RI_25RAST
10
372.75
20
1637.
30
0.
11
362.25
21
1637.
31
0.
0
LINE
8
RI_RA
10
0.
20
1999.
30
0.
11
399.5
21
1999.
31
0.
0
LINE
8
RI_RI
10
0.
20
1955.5
30
0.
11
356.
21
1955.5
31
0.
0
LINE
8
RI_25RAST
10
-37.5
20
1972.25
30
0.
11
-37.5
21
1961.75
31
0.
0
LINE
8
RI_25RAST
10
-62.5
20
1972.25
30
0.
11
-62.5
21
1961.75
31
0.
0
LINE
8
RI_25RAST
10
-87.5
20
1972.25
30
0.
11
-87.5
21
1961.75
31
0.
0
LINE
8
RI_25RAST
10
-112.5
20
1972.25
30
0.
11
-112.5
21
1961.75
31
0.
0
LINE
8
RI_25RAST
10
-137.5
20
1972.25
30
0.
11
-137.5
21
1961.75
31
0.
0
LINE
8
RI_25RAST
10
-187.5
20
1972.25
30
0.
11
-187.5
21
1961.75
31
0.
0
LINE
8
RI_25RAST
10
-162.5
20
1972.25
30
0.
11
-162.5
21
1961.75
31
0.
0
LINE
8
RI_25RAST
10
162.5
20
1972.25
30
0.
11
162.5
21
1961.75
31
0.
0
LINE
8
RI_25RAST
10
112.5
20
1972.25
30
0.
11
112.5
21
1961.75
31
0.
0
LINE
8
RI_25RAST
10
137.5
20
1972.25
30
0.
11
137.5
21
1961.75
31
0.
0
LINE
8
RI_25RAST
10
62.5
20
1972.25
30
0.
11
62.5
21
1961.75
31
0.
0
LINE
8
RI_25RAST
10
87.5
20
1972.25
30
0.
11
87.5
21
1961.75
31
0.
0
LINE
8
RI_25RAST
10
12.5
20
1972.25
30
0.
11
12.5
21
1961.75
31
0.
0
LINE
8
RI_25RAST
10
37.5
20
1972.25
30
0.
11
37.5
21
1961.75
31
0.
0
LINE
8
RI_25RAST
10
-12.5
20
1972.25
30
0.
11
-12.5
21
1961.75
31
0.
0
LINE
8
RI_25RAST
10
372.75
20
1937.
30
0.
11
362.25
21
1937.
31
0.
0
LINE
8
RI_25RAST
10
372.75
20
1887.
30
0.
11
362.25
21
1887.
31
0.
0
LINE
8
RI_25RAST
10
372.75
20
1912.
30
0.
11
362.25
21
1912.
31
0.
0
LINE
8
RI_25RAST
10
372.75
20
1812.
30
0.
11
362.25
21
1812.
31
0.
0
LINE
8
RI_25RAST
10
372.75
20
1837.
30
0.
11
362.25
21
1837.
31
0.
0
LINE
8
RI_25RAST
10
372.75
20
1862.
30
0.
11
362.25
21
1862.
31
0.
0
LINE
8
RI_25RAST
10
372.75
20
1787.
30
0.
11
362.25
21
1787.
31
0.
0
LINE
8
0
10
357.5
20
1999.
30
0.
11
377.5
21
1999.
31
0.
0
LINE
8
0
10
377.5
20
2007.
30
0.
11
357.5
21
2007.
31
0.
0
LINE
8
RI_RI
10
357.5
20
1999.
30
0.
11
399.5
21
1999.
31
0.
0
LINE
8
RI_RI
10
399.5
20
1957.
30
0.
11
357.5
21
1957.
31
0.
0
LINE
8
RI_25RAST
10
337.5
20
1972.25
30
0.
11
337.5
21
1961.75
31
0.
0
LINE
8
0
10
367.5
20
2005.
30
0.
11
367.5
21
2035.5
31
0.
0
LINE
8
0
10
357.5
20
2007.
30
0.
11
357.5
21
1999.
31
0.
0
LINE
8
0
10
364.5
20
2033.5
30
0.
11
370.5
21
2033.5
31
0.
0
LINE
8
0
10
370.5
20
2007.
30
0.
11
370.5
21
2033.5
31
0.
0
LINE
8
0
10
364.5
20
2007.
30
0.
11
364.5
21
2033.5
31
0.
0
LINE
8
RI_25RAST
10
287.5
20
1972.25
30
0.
11
287.5
21
1961.75
31
0.
0
LINE
8
RI_25RAST
10
312.5
20
1972.25
30
0.
11
312.5
21
1961.75
31
0.
0
LINE
8
RI_RI
10
357.5
20
1957.
30
0.
11
357.5
21
1999.
31
0.
0
LINE
8
RI_25RAST
10
237.5
20
1972.25
30
0.
11
237.5
21
1961.75
31
0.
0
LINE
8
RI_25RAST
10
262.5
20
1972.25
30
0.
11
262.5
21
1961.75
31
0.
0
LINE
8
RI_25RAST
10
187.5
20
1972.25
30
0.
11
187.5
21
1961.75
31
0.
0
LINE
8
RI_25RAST
10
212.5
20
1972.25
30
0.
11
212.5
21
1961.75
31
0.
0
POINT
8
DEFPOINTS
6
BYBLOCK
62
0
10
399.5
20
1999.
30
0.
0
LINE
8
0
10
377.5
20
1999.
30
0.
11
377.5
21
2007.
31
0.
0
LINE
8
RI_RI
10
399.5
20
1999.
30
0.
11
399.5
21
1957.
31
0.
0
ENDSEC
0
EOF
